# xmcd CD database file
#
# Track frame offsets:
#	150
#	13855
#	25583
#	37413
#	52288
#	64273
#	77718
#	89923
#	102628
#	124440
#	142233
#	159328
#
# Disc length: 2318 seconds
#
# Revision: 0
# Processed by: cddbd v1.5.1PL0 Copyright (c) Steve Scherf et al.
# Submitted via: CDex 1.50beta9
#
DISCID=ba090c0c
DTITLE=VARIOUS ARTIST - COUNTRY CLASSICS
DYEAR=1900
DGENRE=Country
TTITLE0=Angeline - Brendan Quinn
TTITLE1=Where The Grass Grows Greenest - Larry Cunningham
TTITLE2=Gentle Mother - Big Tom
TTITLE3=Colminers Daughter - Margo
TTITLE4=Is The World Gone Crazy - Brian Coll
TTITLE5=Cold Windy City Of Chicago - T.R.Dallas
TTITLE6=Let's Go Back To Co. Mayo - Kevin Prendergast
TTITLE7=Life Goes Slowly By - Paddy O'Brien
TTITLE8=Mrs Jones - Roly Daniels
TTITLE9=If We Only Had Old Ireland Over Here - Dermot Moriarty 
TTITLE10=Our Anniversary - Two's Company
TTITLE11=There's Girls, There's Women and There's Ladies - Ray Lynam
EXTD=
EXTT0=
EXTT1=
EXTT2=
EXTT3=
EXTT4=
EXTT5=
EXTT6=
EXTT7=
EXTT8=
EXTT9=
EXTT10=
EXTT11=
PLAYORDER=
